<?xml version="1.0" encoding="UTF-8" standalone="no"?>
<!-- Created with Inkscape (http://www.inkscape.org/) -->

<svg
   xmlns:dc="http://purl.org/dc/elements/1.1/"
   xmlns:cc="http://creativecommons.org/ns#"
   xmlns:rdf="http://www.w3.org/1999/02/22-rdf-syntax-ns#"
   xmlns:svg="http://www.w3.org/2000/svg"
   xmlns="http://www.w3.org/2000/svg"
   xmlns:sodipodi="http://sodipodi.sourceforge.net/DTD/sodipodi-0.dtd"
   xmlns:inkscape="http://www.inkscape.org/namespaces/inkscape"
   id="svg3055"
   version="1.1"
   inkscape:version="0.48.4 r9939"
   width="511.25"
   height="385"
   xml:space="preserve"
   sodipodi:docname="untitled.eps"><metadata
     id="metadata3061"><rdf:RDF><cc:Work
         rdf:about=""><dc:format>image/svg+xml</dc:format><dc:type
           rdf:resource="http://purl.org/dc/dcmitype/StillImage" /><dc:title></dc:title></cc:Work></rdf:RDF></metadata><defs
     id="defs3059"><marker
       inkscape:stockid="Arrow1Lend"
       orient="auto"
       refY="0.0"
       refX="0.0"
       id="Arrow1Lend"
       style="overflow:visible;"><path
         id="path4087"
         d="M 0.0,0.0 L 5.0,-5.0 L -12.5,0.0 L 5.0,5.0 L 0.0,0.0 z "
         style="fill-rule:evenodd;stroke:#000000;stroke-width:1.0pt;"
         transform="scale(0.8) rotate(180) translate(12.5,0)" /></marker><clipPath
       clipPathUnits="userSpaceOnUse"
       id="clipPath3071"><path
         d="m 0,7 4090,0 0,3073 L 0,3080 0,7 z"
         id="path3073" /></clipPath><clipPath
       clipPathUnits="userSpaceOnUse"
       id="clipPath3215"><path
         d="m 640,422.5 3067.5,0 0,2426.67 -3067.5,0 0,-2426.67 z"
         id="path3217" /></clipPath></defs><sodipodi:namedview
     pagecolor="#ffffff"
     bordercolor="#666666"
     borderopacity="1"
     objecttolerance="10"
     gridtolerance="10"
     guidetolerance="10"
     inkscape:pageopacity="0"
     inkscape:pageshadow="2"
     inkscape:window-width="1311"
     inkscape:window-height="744"
     id="namedview3057"
     showgrid="false"
     inkscape:zoom="1.0964747"
     inkscape:cx="268.47916"
     inkscape:cy="210.52753"
     inkscape:window-x="49"
     inkscape:window-y="24"
     inkscape:window-maximized="1"
     inkscape:current-layer="g3063" /><g
     id="g3063"
     inkscape:groupmode="layer"
     inkscape:label="ink_ext_XXXXXX"
     transform="matrix(1.25,0,0,-1.25,0,385)"><g
       id="g3065"
       transform="matrix(0.09979695,0,0,0.09979695,0,-0.69857885)"><g
         id="g3067"><g
           id="g3069"
           clip-path="url(#clipPath3071)"><path
             d="m 0,7 4090,0 0,3073 L 0,3080 0,7 z"
             style="fill:#ffffff;fill-opacity:1;fill-rule:nonzero;stroke:none"
             id="path3075"
             inkscape:connector-curvature="0" /><path
             d="m 640,423.332 3066.67,0 0,2425.84 -3066.67,0 0,-2425.84 z"
             style="fill:#ffffff;fill-opacity:1;fill-rule:evenodd;stroke:none"
             id="path3077"
             inkscape:connector-curvature="0" /><path
             d="m 640,423.332 0,2425.838 3066.67,0 0,-2425.838 -3066.67,0"
             style="fill:none;stroke:#ffffff;stroke-width:5;stroke-linecap:butt;stroke-linejoin:round;stroke-miterlimit:10;stroke-opacity:1;stroke-dasharray:none"
             id="path3079"
             inkscape:connector-curvature="0" /><path
             d="m 640,423.332 0,2425.838"
             style="fill:none;stroke:#000000;stroke-width:3.33332992;stroke-linecap:butt;stroke-linejoin:round;stroke-miterlimit:10;stroke-opacity:1;stroke-dasharray:5, 40;stroke-dashoffset:0"
             id="path3081"
             inkscape:connector-curvature="0" /><path
             d="m 640,2849.17 0,0"
             style="fill:none;stroke:#000000;stroke-width:3.33332992;stroke-linecap:butt;stroke-linejoin:round;stroke-miterlimit:10;stroke-opacity:1;stroke-dasharray:5, 40;stroke-dashoffset:0"
             id="path3083"
             inkscape:connector-curvature="0" /><path
             d="m 1406.67,423.332 0,2425.838"
             style="fill:none;stroke:#000000;stroke-width:3.33332992;stroke-linecap:butt;stroke-linejoin:round;stroke-miterlimit:10;stroke-opacity:1;stroke-dasharray:5, 40;stroke-dashoffset:0"
             id="path3085"
             inkscape:connector-curvature="0" /><path
             d="m 1406.67,2849.17 0,0"
             style="fill:none;stroke:#000000;stroke-width:3.33332992;stroke-linecap:butt;stroke-linejoin:round;stroke-miterlimit:10;stroke-opacity:1;stroke-dasharray:5, 40;stroke-dashoffset:0"
             id="path3087"
             inkscape:connector-curvature="0" /><path
             d="m 2173.33,423.332 0,2425.838"
             style="fill:none;stroke:#000000;stroke-width:3.33332992;stroke-linecap:butt;stroke-linejoin:round;stroke-miterlimit:10;stroke-opacity:1;stroke-dasharray:5, 40;stroke-dashoffset:0"
             id="path3089"
             inkscape:connector-curvature="0" /><path
             d="m 2173.33,2849.17 0,0"
             style="fill:none;stroke:#000000;stroke-width:3.33332992;stroke-linecap:butt;stroke-linejoin:round;stroke-miterlimit:10;stroke-opacity:1;stroke-dasharray:5, 40;stroke-dashoffset:0"
             id="path3091"
             inkscape:connector-curvature="0" /><path
             d="m 2940,423.332 0,2425.838"
             style="fill:none;stroke:#000000;stroke-width:3.33332992;stroke-linecap:butt;stroke-linejoin:round;stroke-miterlimit:10;stroke-opacity:1;stroke-dasharray:5, 40;stroke-dashoffset:0"
             id="path3093"
             inkscape:connector-curvature="0" /><path
             d="m 2940,2849.17 0,0"
             style="fill:none;stroke:#000000;stroke-width:3.33332992;stroke-linecap:butt;stroke-linejoin:round;stroke-miterlimit:10;stroke-opacity:1;stroke-dasharray:5, 40;stroke-dashoffset:0"
             id="path3095"
             inkscape:connector-curvature="0" /><path
             d="m 3706.67,423.332 0,2425.838"
             style="fill:none;stroke:#000000;stroke-width:3.33332992;stroke-linecap:butt;stroke-linejoin:round;stroke-miterlimit:10;stroke-opacity:1;stroke-dasharray:5, 40;stroke-dashoffset:0"
             id="path3097"
             inkscape:connector-curvature="0" /><path
             d="m 3706.67,2849.17 0,0"
             style="fill:none;stroke:#000000;stroke-width:3.33332992;stroke-linecap:butt;stroke-linejoin:round;stroke-miterlimit:10;stroke-opacity:1;stroke-dasharray:5, 40;stroke-dashoffset:0"
             id="path3099"
             inkscape:connector-curvature="0" /><path
             d="m 640,423.332 3066.67,0"
             style="fill:none;stroke:#000000;stroke-width:3.33332992;stroke-linecap:butt;stroke-linejoin:round;stroke-miterlimit:10;stroke-opacity:1;stroke-dasharray:5, 40;stroke-dashoffset:0"
             id="path3101"
             inkscape:connector-curvature="0" /><path
             d="m 3706.67,423.332 0,0"
             style="fill:none;stroke:#000000;stroke-width:3.33332992;stroke-linecap:butt;stroke-linejoin:round;stroke-miterlimit:10;stroke-opacity:1;stroke-dasharray:5, 40;stroke-dashoffset:0"
             id="path3103"
             inkscape:connector-curvature="0" /><path
             d="m 640,1030 3066.67,0"
             style="fill:none;stroke:#000000;stroke-width:3.33332992;stroke-linecap:butt;stroke-linejoin:round;stroke-miterlimit:10;stroke-opacity:1;stroke-dasharray:5, 40;stroke-dashoffset:0"
             id="path3105"
             inkscape:connector-curvature="0" /><path
             d="m 3706.67,1030 0,0"
             style="fill:none;stroke:#000000;stroke-width:3.33332992;stroke-linecap:butt;stroke-linejoin:round;stroke-miterlimit:10;stroke-opacity:1;stroke-dasharray:5, 40;stroke-dashoffset:0"
             id="path3107"
             inkscape:connector-curvature="0" /><path
             d="m 640,1636.67 3066.67,0"
             style="fill:none;stroke:#000000;stroke-width:3.33332992;stroke-linecap:butt;stroke-linejoin:round;stroke-miterlimit:10;stroke-opacity:1;stroke-dasharray:5, 40;stroke-dashoffset:0"
             id="path3109"
             inkscape:connector-curvature="0" /><path
             d="m 3706.67,1636.67 0,0"
             style="fill:none;stroke:#000000;stroke-width:3.33332992;stroke-linecap:butt;stroke-linejoin:round;stroke-miterlimit:10;stroke-opacity:1;stroke-dasharray:5, 40;stroke-dashoffset:0"
             id="path3111"
             inkscape:connector-curvature="0" /><path
             d="m 640,2243.33 3066.67,0"
             style="fill:none;stroke:#000000;stroke-width:3.33332992;stroke-linecap:butt;stroke-linejoin:round;stroke-miterlimit:10;stroke-opacity:1;stroke-dasharray:5, 40;stroke-dashoffset:0"
             id="path3113"
             inkscape:connector-curvature="0" /><path
             d="m 3706.67,2243.33 0,0"
             style="fill:none;stroke:#000000;stroke-width:3.33332992;stroke-linecap:butt;stroke-linejoin:round;stroke-miterlimit:10;stroke-opacity:1;stroke-dasharray:5, 40;stroke-dashoffset:0"
             id="path3115"
             inkscape:connector-curvature="0" /><path
             d="m 640,2849.17 3066.67,0"
             style="fill:none;stroke:#000000;stroke-width:3.33332992;stroke-linecap:butt;stroke-linejoin:round;stroke-miterlimit:10;stroke-opacity:1;stroke-dasharray:5, 40;stroke-dashoffset:0"
             id="path3117"
             inkscape:connector-curvature="0" /><path
             d="m 3706.67,2849.17 0,0"
             style="fill:none;stroke:#000000;stroke-width:3.33332992;stroke-linecap:butt;stroke-linejoin:round;stroke-miterlimit:10;stroke-opacity:1;stroke-dasharray:5, 40;stroke-dashoffset:0"
             id="path3119"
             inkscape:connector-curvature="0" /><path
             d="m 640,423.332 3066.67,0"
             style="fill:none;stroke:#000000;stroke-width:5;stroke-linecap:butt;stroke-linejoin:round;stroke-miterlimit:10;stroke-opacity:1;stroke-dasharray:none"
             id="path3121"
             inkscape:connector-curvature="0" /><path
             d="m 640,423.332 0,2425.838"
             style="fill:none;stroke:#000000;stroke-width:5;stroke-linecap:butt;stroke-linejoin:round;stroke-miterlimit:10;stroke-opacity:1;stroke-dasharray:none"
             id="path3123"
             inkscape:connector-curvature="0" /><path
             d="m 640,423.332 0,30.836"
             style="fill:none;stroke:#000000;stroke-width:5;stroke-linecap:butt;stroke-linejoin:round;stroke-miterlimit:10;stroke-opacity:1;stroke-dasharray:none"
             id="path3125"
             inkscape:connector-curvature="0" /><g
             id="g3127"
             transform="scale(10,10)"><text
               transform="matrix(1,0,0,-1,43.5,22.75)"
               id="text3129"><tspan
                 style="font-size:18px;font-variant:normal;font-weight:normal;writing-mode:lr-tb;fill:#000000;fill-opacity:1;fill-rule:nonzero;stroke:none;font-family:Helvetica;-inkscape-font-specification:Helvetica"
                 x="0 10.512 20.52"
                 y="0"
                 sodipodi:role="line"
                 id="tspan3131">−10</tspan></text>
</g><path
             d="m 1406.67,423.332 0,30.836"
             style="fill:none;stroke:#000000;stroke-width:5;stroke-linecap:butt;stroke-linejoin:round;stroke-miterlimit:10;stroke-opacity:1;stroke-dasharray:none"
             id="path3133"
             inkscape:connector-curvature="0" /><g
             id="g3135"
             transform="scale(10,10)"><text
               transform="matrix(1,0,0,-1,125.167,22.75)"
               id="text3137"><tspan
                 style="font-size:18px;font-variant:normal;font-weight:normal;writing-mode:lr-tb;fill:#000000;fill-opacity:1;fill-rule:nonzero;stroke:none;font-family:Helvetica;-inkscape-font-specification:Helvetica"
                 x="0 10.512"
                 y="0"
                 sodipodi:role="line"
                 id="tspan3139">−5</tspan></text>
</g><path
             d="m 2173.33,423.332 0,30.836"
             style="fill:none;stroke:#000000;stroke-width:5;stroke-linecap:butt;stroke-linejoin:round;stroke-miterlimit:10;stroke-opacity:1;stroke-dasharray:none"
             id="path3141"
             inkscape:connector-curvature="0" /><g
             id="g3143"
             transform="scale(10,10)"><text
               transform="matrix(1,0,0,-1,212.333,22.75)"
               id="text3145"><tspan
                 style="font-size:18px;font-variant:normal;font-weight:normal;writing-mode:lr-tb;fill:#000000;fill-opacity:1;fill-rule:nonzero;stroke:none;font-family:Helvetica;-inkscape-font-specification:Helvetica"
                 x="0"
                 y="0"
                 id="tspan3147">0</tspan></text>
</g><path
             d="m 2940,423.332 0,30.836"
             style="fill:none;stroke:#000000;stroke-width:5;stroke-linecap:butt;stroke-linejoin:round;stroke-miterlimit:10;stroke-opacity:1;stroke-dasharray:none"
             id="path3149"
             inkscape:connector-curvature="0" /><g
             id="g3151"
             transform="scale(10,10)"><text
               transform="matrix(1,0,0,-1,289,22.75)"
               id="text3153"><tspan
                 style="font-size:18px;font-variant:normal;font-weight:normal;writing-mode:lr-tb;fill:#000000;fill-opacity:1;fill-rule:nonzero;stroke:none;font-family:Helvetica;-inkscape-font-specification:Helvetica"
                 x="0"
                 y="0"
                 id="tspan3155">5</tspan></text>
</g><path
             d="m 3706.67,423.332 0,30.836"
             style="fill:none;stroke:#000000;stroke-width:5;stroke-linecap:butt;stroke-linejoin:round;stroke-miterlimit:10;stroke-opacity:1;stroke-dasharray:none"
             id="path3157"
             inkscape:connector-curvature="0" /><g
             id="g3159"
             transform="scale(10,10)"><text
               transform="matrix(1,0,0,-1,360.667,22.75)"
               id="text3161"><tspan
                 style="font-size:18px;font-variant:normal;font-weight:normal;writing-mode:lr-tb;fill:#000000;fill-opacity:1;fill-rule:nonzero;stroke:none;font-family:Helvetica;-inkscape-font-specification:Helvetica"
                 x="0 10.008"
                 y="0"
                 sodipodi:role="line"
                 id="tspan3163">10</tspan></text>
</g><path
             d="m 640,423.332 30,0"
             style="fill:none;stroke:#000000;stroke-width:5;stroke-linecap:butt;stroke-linejoin:round;stroke-miterlimit:10;stroke-opacity:1;stroke-dasharray:none"
             id="path3165"
             inkscape:connector-curvature="0" /><g
             id="g3167"
             transform="scale(10,10)"><text
               transform="matrix(1,0,0,-1,40.5832,35.6668)"
               id="text3169"><tspan
                 style="font-size:18px;font-variant:normal;font-weight:normal;writing-mode:lr-tb;fill:#000000;fill-opacity:1;fill-rule:nonzero;stroke:none;font-family:Helvetica;-inkscape-font-specification:Helvetica"
                 x="0 10.512"
                 y="0"
                 sodipodi:role="line"
                 id="tspan3171">−1</tspan></text>
</g><path
             d="m 640,1030 30,0"
             style="fill:none;stroke:#000000;stroke-width:5;stroke-linecap:butt;stroke-linejoin:round;stroke-miterlimit:10;stroke-opacity:1;stroke-dasharray:none"
             id="path3173"
             inkscape:connector-curvature="0" /><g
             id="g3175"
             transform="scale(10,10)"><text
               transform="matrix(1,0,0,-1,25.5832,96.3332)"
               id="text3177"><tspan
                 style="font-size:18px;font-variant:normal;font-weight:normal;writing-mode:lr-tb;fill:#000000;fill-opacity:1;fill-rule:nonzero;stroke:none;font-family:Helvetica;-inkscape-font-specification:Helvetica"
                 x="0 10.512 20.52 25.524"
                 y="0"
                 sodipodi:role="line"
                 id="tspan3179">−0.5</tspan></text>
</g><path
             d="m 640,1636.67 30,0"
             style="fill:none;stroke:#000000;stroke-width:5;stroke-linecap:butt;stroke-linejoin:round;stroke-miterlimit:10;stroke-opacity:1;stroke-dasharray:none"
             id="path3181"
             inkscape:connector-curvature="0" /><g
             id="g3183"
             transform="scale(10,10)"><text
               transform="matrix(1,0,0,-1,51.0832,157)"
               id="text3185"><tspan
                 style="font-size:18px;font-variant:normal;font-weight:normal;writing-mode:lr-tb;fill:#000000;fill-opacity:1;fill-rule:nonzero;stroke:none;font-family:Helvetica;-inkscape-font-specification:Helvetica"
                 x="0"
                 y="0"
                 id="tspan3187">0</tspan></text>
</g><path
             d="m 640,2243.33 30,0"
             style="fill:none;stroke:#000000;stroke-width:5;stroke-linecap:butt;stroke-linejoin:round;stroke-miterlimit:10;stroke-opacity:1;stroke-dasharray:none"
             id="path3189"
             inkscape:connector-curvature="0" /><g
             id="g3191"
             transform="scale(10,10)"><text
               transform="matrix(1,0,0,-1,36.0832,217.667)"
               id="text3193"><tspan
                 style="font-size:18px;font-variant:normal;font-weight:normal;writing-mode:lr-tb;fill:#000000;fill-opacity:1;fill-rule:nonzero;stroke:none;font-family:Helvetica;-inkscape-font-specification:Helvetica"
                 x="0 10.008 15.012"
                 y="0"
                 sodipodi:role="line"
                 id="tspan3195">0.5</tspan></text>
</g><path
             d="m 640,2849.17 30,0"
             style="fill:none;stroke:#000000;stroke-width:5;stroke-linecap:butt;stroke-linejoin:round;stroke-miterlimit:10;stroke-opacity:1;stroke-dasharray:none"
             id="path3197"
             inkscape:connector-curvature="0" /><g
             id="g3199"
             transform="scale(10,10)"><text
               transform="matrix(1,0,0,-1,51.0832,278.25)"
               id="text3201"><tspan
                 style="font-size:18px;font-variant:normal;font-weight:normal;writing-mode:lr-tb;fill:#000000;fill-opacity:1;fill-rule:nonzero;stroke:none;font-family:Helvetica;-inkscape-font-specification:Helvetica"
                 x="0"
                 y="0"
                 id="tspan3203">1</tspan><tspan
                 style="font-size:18px;font-variant:normal;font-weight:normal;writing-mode:lr-tb;fill:#000000;fill-opacity:1;fill-rule:nonzero;stroke:none;font-family:Helvetica;-inkscape-font-specification:Helvetica"
                 x="160.16701"
                 y="273.33301"
                 id="tspan3205">X</tspan></text>
<text
               transform="matrix(0,1,1,0,17,157.583)"
               id="text3207"><tspan
                 style="font-size:18px;font-variant:normal;font-weight:normal;writing-mode:lr-tb;fill:#000000;fill-opacity:1;fill-rule:nonzero;stroke:none;font-family:Helvetica;-inkscape-font-specification:Helvetica"
                 x="0"
                 y="0"
                 id="tspan3209">Y</tspan></text>
</g></g></g><g
         id="g3211"><g
           id="g3213"
           clip-path="url(#clipPath3215)"><path
             d="m 640,1636.67 15,-38.34 15,-37.5 15.832,-38.33 15,-37.5 15.836,-38.33 15,-37.5 15,-37.5 15.832,-36.67 15,-36.67 15.832,-36.66 15,-35.84 15,-35.83 15.836,-35 15,-35 15.832,-34.17 15,-33.33 15,-33.33 15.832,-32.502 15,-31.668 15.836,-31.668 15,-30 15,-30 15.832,-29.164 15,-27.5 15.83,-27.5 15,-26.668 15,-25.832 15.84,-24.168 15,-24.168 L 1100,655 l 15,-21.668 15,-20.832 15.83,-20 15,-18.332 15.84,-18.336 15,-16.664 15,-15.836 15.83,-14.164 15,-13.336 15.83,-12.5 15,-11.664 15,-10 15.84,-8.336 15,-8.332 15.83,-6.668 15,-5 15,-4.164 15.83,-3.336 15,-1.664 15.84,-0.836 15,0.836 15,1.664 15.83,3.336 15,4.164 15.83,5 15,6.668 15,8.332 15.84,8.336 15,10 15.83,11.664 15,12.5 15,13.336 15.83,14.164 15,15.836 15.84,16.664 15,18.336 15,18.332 15.83,20 15,20.832 15.83,21.668 15,23.332 15,24.168 15.84,24.168 15,25.832 15.83,26.668 15,27.5 15,27.5 15.83,29.164 15,30 15.84,30 15,31.668 15,31.668 15.83,32.502 15,33.33 15.83,33.33 15,34.17 15,35 15.84,35 15,35.83 15.83,35.84 15,36.66 15,36.67 15.83,36.67 15,37.5 15.84,37.5 15,38.33 15,37.5 15.83,38.33 15,37.5 15.83,38.34 15,38.33 15,37.5 15.84,38.33 15,37.5 15.83,38.34 15,37.5 15,37.5 15.83,36.66 15,36.67 15.84,36.67 15,35.83 15,35.83 15.83,35 15,35 15.83,34.17 15,33.33 15,33.34 15.84,32.5 15,31.66 15.83,31.67 15,30 15,30 15.83,29.17 15,27.5 15.84,27.5 15,26.66 15,25.84 15.83,24.16 15,24.17 15.83,23.33 15,21.67 15,20.83 15.84,20 15,18.34 15.83,18.33 15,16.67 15,15.83 15.83,14.17 15,13.33 15.84,12.5 15,11.67 15,10 15.83,8.33 15,8.33 15.83,6.67 15,5 15,4.17 15.84,3.33 15,1.67 30.83,0 15,-1.67 15.83,-3.33 15,-4.17 15.84,-5 15,-6.67 15,-8.33 15.83,-8.33 15,-10 15.83,-11.67 15,-12.5 15,-13.33 15.84,-14.17 15,-15.83 15.83,-16.67 15,-18.33 15,-18.34 15.83,-20 15,-20.83 15.84,-21.67 15,-23.33 15,-24.17 15.83,-24.16 15,-25.84 15.83,-26.66 15,-27.5 15,-27.5 15.84,-29.17 15,-30 15.83,-30 15,-31.67 15,-31.66 15.83,-32.5 15,-33.34 15.84,-33.33 15,-34.17 15,-35 15.83,-35 15,-35.83 15.83,-35.83 15,-36.67 15,-36.67 15.84,-36.66 15,-37.5 15.83,-37.5 15,-38.34 15,-37.5 15.83,-38.33 15,-37.5 15.84,-38.33"
             style="fill:none;stroke:#0000ff;stroke-width:20;stroke-linecap:butt;stroke-linejoin:round;stroke-miterlimit:10;stroke-opacity:1;stroke-dasharray:none"
             id="path3219"
             inkscape:connector-curvature="0" /></g></g></g><text
       xml:space="preserve"
       style="font-size:32px;font-style:normal;font-variant:normal;font-weight:normal;font-stretch:normal;line-height:125%;letter-spacing:0px;word-spacing:0px;fill:#000000;fill-opacity:1;stroke:none;font-family:Vemana2000;-inkscape-font-specification:Vemana2000"
       x="88.282936"
       y="-265.5784"
       id="text3306"
       sodipodi:linespacing="125%"
       transform="scale(1,-1)"><tspan
         sodipodi:role="line"
         id="tspan3308"
         x="88.282936"
         y="-265.5784">Title here</tspan></text>
<path
       style="fill:none;stroke:#000000;stroke-width:1px;stroke-linecap:butt;stroke-linejoin:miter;stroke-opacity:1;marker-end:url(#Arrow1Lend)"
       d="M 135.89005,61.235111 C 238.03559,210.80537 238.03559,210.80537 238.03559,210.80537"
       id="path3310"
       inkscape:connector-curvature="0"
       transform="matrix(0.8,0,0,-0.8,0,308)" /></g></svg>